<?xml version="1.0" encoding="UTF-8" standalone="no"?>
<!-- Created with Inkscape (http://www.inkscape.org/) -->

<svg
   width="124.10945mm"
   height="121.83068mm"
   viewBox="0 0 124.10945 121.83068"
   version="1.1"
   id="svg5"
   inkscape:version="1.1 (c4e8f9ed74, 2021-05-24)"
   sodipodi:docname="fnnp.svg"
   xmlns:inkscape="http://www.inkscape.org/namespaces/inkscape"
   xmlns:sodipodi="http://sodipodi.sourceforge.net/DTD/sodipodi-0.dtd"
   xmlns="http://www.w3.org/2000/svg"
   xmlns:svg="http://www.w3.org/2000/svg">
  <sodipodi:namedview
     id="namedview7"
     pagecolor="#ffffff"
     bordercolor="#666666"
     borderopacity="1.0"
     inkscape:pageshadow="2"
     inkscape:pageopacity="0.0"
     inkscape:pagecheckerboard="0"
     inkscape:document-units="mm"
     showgrid="false"
     showguides="true"
     inkscape:guide-bbox="true"
     inkscape:zoom="0.70710678"
     inkscape:cx="340.11836"
     inkscape:cy="21.213203"
     inkscape:window-width="1920"
     inkscape:window-height="1025"
     inkscape:window-x="0"
     inkscape:window-y="27"
     inkscape:window-maximized="1"
     inkscape:current-layer="layer4" />
  <defs
     id="defs2">
    <rect
       x="-244.21069"
       y="-333.85471"
       width="204.59174"
       height="186.69513"
       id="rect132134" />
    <rect
       x="-22.318058"
       y="-60.129326"
       width="966.7215"
       height="178.46043"
       id="rect91198" />
  </defs>
  <g
     inkscape:groupmode="layer"
     id="layer4"
     inkscape:label="Layer 2"
     style="display:inline"
     transform="translate(65.636263,-57.389677)">
    <path
       id="path38518"
       style="color:#000000;fill:#000000;fill-opacity:1;stroke:none;stroke-width:0.0667901;stroke-miterlimit:4;stroke-dasharray:none;stroke-opacity:1"
       d="m 1.5113646,88.899631 c -8.1298202,-0.04389 -12.9666976,3.79375 -14.9685956,7.90546 -1.067676,2.192914 -1.380204,4.430429 -0.992187,6.289019 0.194011,0.92929 0.569399,1.7814 1.203026,2.44326 0.781722,0.64967 1.432213,1.06609 2.549199,1.06609 1.3628186,0.002 2.5255592,-0.85408 3.0680291,-1.89032 0.5467403,-1.0444 0.6897661,-2.23308 0.6717929,-3.42202 -0.01796,-1.18895 -0.2191384,-2.382017 -0.5446685,-3.424078 -0.3255301,-1.042059 -1.0202651,-2.192363 -1.4433233,-2.524394 -0.3325071,0.2769 -1.2860842,1.248989 -1.5683782,1.971973 0.346842,0.46318 0.318746,0.532196 0.5643056,1.318266 0.2455598,0.786066 0.4140386,1.781663 0.4278816,2.697513 0.01384,0.91584 -0.1485001,1.74929 -0.3808572,2.19314 -0.297037,0.44184 -0.475853,0.5308 -0.792715,0.52969 -0.308711,0.004 -0.493903,-0.0744 -0.699699,-0.28939 -0.205798,-0.21496 -0.424725,-0.62076 -0.544669,-1.19528 -0.239887,-1.14904 -0.05515,-2.906519 0.789099,-4.64054 1.6885074,-3.468039 5.8137425,-6.970589 14.1583091,-6.408394 3.9749491,0.267803 7.5506689,2.356199 9.6050969,5.728332 2.054429,3.372132 2.648593,8.062992 0.382924,13.764022 -3.7110645,9.33801 -14.1960626,20.70022 -39.097873,32.17064 l 1.538406,2.13476 C 0.39263754,133.78131 11.298929,122.22509 15.378735,111.9592 17.884215,105.65475 17.303338,100.01558 14.804608,95.91419 12.305878,91.812786 7.9500159,89.282391 3.1815469,88.961126 2.6101554,88.922626 2.053353,88.902551 1.5113646,88.899631 Z m -24.7767846,0.0155 c -0.439496,4.01e-4 -0.886219,0.01542 -1.339969,0.04599 -7.691979,0.518231 -14.134041,6.728121 -13.771252,15.634709 0.362791,8.90659 7.240465,20.19922 25.070305,31.75206 l 2.394169,-1.45728 c -17.440195,-11.30038 -24.590451,-22.74136 -24.902355,-30.39866 -0.311904,-7.657302 4.926028,-12.537425 11.381216,-12.972329 6.601309,-0.44475 11.153663,2.618989 11.932089,3.327445 0.466971,-0.5991 1.185444,-1.480101 1.69292,-1.869136 -0.951216,-0.865717 -5.864651,-4.06882 -12.457123,-4.062801 z m 34.761704,47.231749 c -4.8567494,0.0892 -7.5679374,3.12579 -9.0904028,6.03012 -4.9089204,-2.51566 -6.1744039,-2.96969 -10.4169341,-5.52318 l -2.4189741,1.56735 c 4.371607,2.63117 6.6904338,3.67624 11.8178842,6.31434 -1.83994428,5.30533 -1.871898,13.75875 15.3541018,17.17673 0.180189,0.0333 0.406995,-0.25102 0.607713,-0.66094 7.097281,1.5188 16.719375,3.86997 24.734925,3.99665 2.5928,0.041 4.639881,-0.0344 6.77323,-0.58911 l -0.819071,-1.38441 c -1.825421,0.40938 -3.582424,0.34878 -5.868892,0.31264 -7.698222,-0.12167 -17.217829,-2.41632 -24.346318,-3.94291 0.0473,-0.46315 -0.0205,-0.8307 -0.285255,-0.89348 C 3.0576611,155.65477 1.9743114,149.75774 4.0812334,144.5598 c 2.1741791,-5.17015 7.1028456,-8.5854 19.4081156,-0.42116 0.234392,0.14386 0.545719,-0.0753 0.841809,-0.44391 6.128602,3.94724 14.491393,9.03636 20.031853,14.38052 2.84026,2.73964 4.901602,5.5413 5.57847,8.14111 0.654491,2.51391 0.172436,4.82861 -2.225705,7.25537 -0.127849,-0.0305 -0.290147,-0.0189 -0.507978,0.0713 -0.60579,0.25075 -1.642999,1.10575 -1.903759,1.40819 -0.52622,0.039 -1.045435,0.28629 -1.433505,0.73225 -0.776139,0.89194 -0.732658,2.24181 0.09715,3.0148 0.829829,0.77302 2.131693,0.67644 2.907832,-0.21549 0.388072,-0.44597 0.571005,-1.00632 0.553455,-1.55184 0.32144,-0.36817 0.998178,-1.45949 1.188559,-2.10065 1.059288,-1.03823 1.836097,-2.13101 2.354379,-3.25045 0.0555,-0.11996 0.107344,-0.24022 0.157096,-0.3607 h 5.16e-4 c 0.744191,-1.80814 0.829117,-3.67717 0.356566,-5.49217 -0.80645,-3.09762 -3.066738,-6.0484 -6.011519,-8.88886 -5.77034,-5.56589 -14.249325,-10.68917 -20.350694,-14.6203 0.142381,-0.42483 0.180851,-0.77939 0.03152,-0.8816 -5.818365,-3.87296 -10.262992,-5.25172 -13.659115,-5.18934 z m 45.062881,12.30105 c -1.133459,-0.0376 -2.116492,0.88789 -2.195732,2.06758 -0.0396,0.58984 0.154291,1.13177 0.499713,1.53065 -0.0286,0.39832 0.103084,1.73635 0.355534,2.34146 0.0576,0.13797 0.121533,0.23744 0.189134,0.30954 0.0234,3.49987 -1.271711,5.51773 -3.540352,6.85592 -0.54492,0.32143 -0.699119,0.46807 -1.360641,0.70021 l 0.771014,1.40922 c 0.63545,-0.24262 0.776267,-0.34041 1.338935,-0.67231 1.615421,-0.95288 2.874102,-2.33731 3.622003,-4.14393 l -5.19e-4,-5.2e-4 c 0.0498,-0.12043 0.09792,-0.2422 0.143145,-0.36639 0.409189,-1.12243 0.629359,-2.39807 0.626319,-3.82457 0.0281,-0.0368 0.05602,-0.0779 0.08371,-0.12506 0.33037,-0.55904 0.640792,-1.88243 0.673862,-2.38745 0.39737,-0.37421 0.663128,-0.90052 0.7028,-1.49035 0.0793,-1.17968 -0.77546,-2.16634 -1.908929,-2.204 z" />
    <circle
       style="fill:none;fill-opacity:1;stroke:#000000;stroke-width:4.465;stroke-miterlimit:4;stroke-dasharray:none;stroke-opacity:1"
       id="path87730"
       cx="-32.044094"
       cy="147.6463"
       r="9.531805" />
    <circle
       style="display:inline;fill:#000000;fill-opacity:1;stroke:none;stroke-width:2.25328;stroke-miterlimit:4;stroke-dasharray:none;stroke-opacity:1"
       id="path87730-0"
       cx="-32.022297"
       cy="147.61243"
       r="4.8102694" />
    <g
       aria-label="Friendly Neighborhood"
       transform="translate(0.41183716,-1.1131228)"
       id="text91196"
       style="font-size:12.7px;white-space:pre">
      <path
         style="color:#000000;-inkscape-font-specification:'Nimbus Mono PS Bold';fill:#000000;-inkscape-stroke:none"
         d="m -61.631561,116.89435 -0.04422,-0.9769 0.03806,-0.002 c 0.291802,-0.0132 0.43021,-0.0449 0.541522,-0.11351 0.184562,-0.13548 0.301094,-0.36959 0.290757,-0.59796 -0.0098,-0.21567 -0.120448,-0.41407 -0.291697,-0.54616 -0.144151,-0.0952 -0.259483,-0.11539 -0.602032,-0.0999 l -1.35751,0.0614 c -0.317175,0.0144 -0.418097,0.0316 -0.540947,0.12619 -0.185136,0.1228 -0.301669,0.35691 -0.290757,0.59796 0.0098,0.21568 0.120448,0.41408 0.291122,0.53348 0.144152,0.0952 0.27217,0.11481 0.602033,0.0999 l 0.02537,-0.001 0.04422,0.9769 -1.61125,0.0729 -0.142427,-3.14638 0.570915,-0.0258 c 0.291801,-0.0132 0.417523,-0.0443 0.52826,-0.12562 0.197249,-0.13606 0.301669,-0.35691 0.290757,-0.59796 -0.0098,-0.21568 -0.120448,-0.41408 -0.291697,-0.54617 -0.144151,-0.0952 -0.259483,-0.11538 -0.589345,-0.10045 l -1.877677,0.085 0.272795,6.02632 c 0.01493,0.32987 0.03221,0.43079 0.114078,0.55421 0.136059,0.19725 0.357481,0.31436 0.57316,0.3046 0.215679,-0.01 0.413503,-0.13314 0.52022,-0.30324 0.09518,-0.14415 0.114235,-0.28486 0.0993,-0.61472 l -0.0063,-0.13956 4.541949,-0.2056 0.0063,0.13956 c 0.01436,0.31717 0.0449,0.43021 0.114079,0.55421 0.136059,0.19725 0.357481,0.31435 0.57316,0.30459 0.431358,-0.0195 0.645941,-0.33435 0.619523,-0.91795 l -0.123475,-2.72771 c -0.02642,-0.5836 -0.255881,-0.87833 -0.699926,-0.85823 -0.202992,0.009 -0.388703,0.1193 -0.507533,0.30266 -0.09518,0.14416 -0.11481,0.27217 -0.0993,0.61472 l 0.05513,1.21796 z"
         id="path1388" />
      <path
         style="color:#000000;-inkscape-font-specification:'Nimbus Mono PS Bold';fill:#000000;-inkscape-stroke:none"
         d="m -63.88108,107.46237 -0.203837,1.75349 c -0.0264,0.22707 -0.01641,0.47116 0.0364,0.5668 0.09007,0.21503 0.289864,0.36611 0.516935,0.39251 0.428911,0.0499 0.691177,-0.2265 0.758634,-0.8068 l 0.04546,-0.39106 2.762696,0.32115 -0.07919,0.68121 c -0.03813,0.32799 -0.03724,0.43038 0.02378,0.56533 0.09007,0.21504 0.302479,0.36759 0.516935,0.39252 0.428911,0.0498 0.691177,-0.22651 0.758634,-0.8068 l 0.435537,-3.74667 c 0.06892,-0.59291 -0.110337,-0.9206 -0.551864,-0.97193 -0.201841,-0.0235 -0.402798,0.0555 -0.549479,0.21741 -0.117052,0.12703 -0.156946,0.25025 -0.198007,0.60347 l -0.197972,1.70303 -1.703031,-0.19797 c -0.774837,-1.25355 -1.01894,-1.79335 -0.974946,-2.1718 0.01906,-0.164 0.08272,-0.27167 0.254633,-0.43068 0.200074,-0.18131 0.27928,-0.31274 0.301277,-0.50197 0.04253,-0.36583 -0.223572,-0.71641 -0.589409,-0.75893 -0.227071,-0.0264 -0.402798,0.0555 -0.64805,0.29544 -0.362302,0.36702 -0.562076,0.76572 -0.614868,1.21987 -0.07332,0.63075 0.06458,1.09427 0.631406,2.15743 z"
         id="path1390" />
      <path
         style="color:#000000;-inkscape-font-specification:'Nimbus Mono PS Bold';fill:#000000;-inkscape-stroke:none"
         d="m -61.995777,98.256052 -0.633584,2.222868 c -0.09399,0.32977 -0.109629,0.43096 -0.07116,0.57398 0.06644,0.23023 0.227041,0.40806 0.446885,0.47072 0.427474,0.12185 0.718654,-0.1121 0.882272,-0.68613 l 0.257611,-0.903807 2.67477,0.762387 -0.410785,1.4412 c -0.09051,0.31755 -0.106149,0.41874 -0.06768,0.56177 0.06644,0.23023 0.239254,0.41154 0.446884,0.47072 0.415261,0.11837 0.718655,-0.1121 0.878791,-0.67392 l 1.197543,-4.201467 c 0.160136,-0.561824 0.02384,-0.917611 -0.39142,-1.035973 -0.195416,-0.0557 -0.40647,-0.01021 -0.577343,0.125968 -0.136001,0.1065 -0.195241,0.221673 -0.289234,0.551439 l -0.410785,1.4412 z m -2.210538,-0.445188 -0.438634,1.538909 1.319064,0.375972 0.438635,-1.538908 z"
         id="path1392" />
      <path
         style="color:#000000;-inkscape-font-specification:'Nimbus Mono PS Bold';fill:#000000;-inkscape-stroke:none"
         d="m -54.837314,89.461923 -0.471344,-0.221277 c -1.540488,-0.7232 -3.266183,0.02397 -4.086528,1.77139 -0.804155,1.712932 -0.275894,3.546305 1.207113,4.242519 1.506001,0.707008 3.168817,-0.05565 4.021545,-1.872047 0.388584,-0.827726 0.749041,-2.103582 0.761983,-2.728851 0.01996,-0.341374 -0.08772,-0.560284 -0.329135,-0.673621 -0.33339,-0.156513 -0.716536,-0.02773 -0.873049,0.305661 -0.05937,0.126458 -0.09574,0.26371 -0.131415,0.429352 -0.221318,1.158787 -0.315656,1.479276 -0.563918,2.008101 -0.447952,0.954183 -0.993711,1.399464 -1.726438,1.406224 z m -3.238041,4.147934 c -0.442472,-0.432201 -0.497324,-1.271684 -0.130327,-2.053425 0.366997,-0.781741 1.042504,-1.264319 1.663078,-1.211492 z"
         id="path1394" />
      <path
         style="color:#000000;-inkscape-font-specification:'Nimbus Mono PS Bold';fill:#000000;-inkscape-stroke:none"
         d="m -55.726894,84.673417 -0.701905,1.027793 c -0.150409,0.220241 -0.190057,0.300817 -0.223055,0.416693 -0.07316,0.24224 0.03965,0.549964 0.259891,0.700372 0.167803,0.114597 0.392904,0.145292 0.598053,0.07009 0.134549,-0.0619 0.20566,-0.120993 0.373719,-0.344559 l 2.296802,1.568543 -0.01432,0.02098 c -0.179057,0.262192 -0.240192,0.374231 -0.241727,0.511594 -0.02021,0.232264 0.09695,0.466062 0.275238,0.587821 0.167803,0.114597 0.392904,0.145292 0.598053,0.07009 0.145037,-0.05474 0.26961,-0.169593 0.448667,-0.431785 l 0.802178,-1.174621 c 0.329466,-0.482433 0.312583,-0.863059 -0.044,-1.106577 -0.167803,-0.114597 -0.382417,-0.13813 -0.598054,-0.07009 -0.152199,0.06523 -0.237635,0.145292 -0.438179,0.438948 l -0.01432,0.02098 -1.76193,-1.203266 c -0.170618,-0.808574 -0.116389,-1.248289 0.205914,-1.720235 0.429738,-0.629261 0.825712,-0.758694 1.297657,-0.436391 l 1.740955,1.188942 c -0.272167,0.398532 -0.237634,0.775832 0.09797,1.005026 0.367069,0.25068 0.717254,0.120735 1.053883,-0.372186 l 0.637444,-0.933404 c 0.329466,-0.482433 0.323071,-0.855896 -0.044,-1.106577 -0.167803,-0.114597 -0.392904,-0.145292 -0.598053,-0.07009 -0.134549,0.0619 -0.205661,0.120992 -0.373719,0.344558 l -1.782906,-1.217591 c -0.597798,-0.408251 -1.181526,-0.499314 -1.779323,-0.277025 -0.488061,0.174198 -0.914729,0.528733 -1.251358,1.021654 -0.379601,0.555847 -0.479618,0.99505 -0.389576,1.763976 z"
         id="path1396" />
      <path
         style="color:#000000;-inkscape-font-specification:'Nimbus Mono PS Bold';fill:#000000;-inkscape-stroke:none"
         d="m -49.266923,73.299218 -1.048887,1.105627 c -0.227259,0.239553 -0.287971,0.322002 -0.320097,0.466582 -0.04772,0.234824 0.01229,0.466811 0.178138,0.624144 0.156631,0.148593 0.36476,0.205995 0.579266,0.164412 0.160643,-0.04016 0.275691,-0.106077 0.51169,-0.354843 l 0.104889,-0.110563 0.976637,0.926517 c -0.608081,0.105848 -1.183321,0.435415 -1.681542,0.960588 -0.673036,0.709444 -0.986986,1.409432 -1.001617,2.21832 -0.01463,0.808889 0.291552,1.519495 0.872006,2.070161 0.589668,0.559406 1.315405,0.827761 2.122402,0.770575 0.806997,-0.05719 1.48949,-0.407545 2.153785,-1.107776 0.506962,-0.534387 0.746028,-1.007818 0.888703,-1.730245 l 0.276407,0.262222 1.048887,-1.105628 c 0.209777,-0.221125 0.287498,-0.339956 0.320097,-0.466581 0.04772,-0.234825 -0.02151,-0.475553 -0.187352,-0.632886 -0.147417,-0.139851 -0.364759,-0.205994 -0.579265,-0.164412 -0.160643,0.04017 -0.257737,0.105605 -0.502477,0.363585 l -0.104889,0.110563 z m 0.257832,4.673545 c 0.419554,-0.442251 0.791866,-0.631723 1.276159,-0.662444 0.412476,-0.02883 0.82968,0.121883 1.106087,0.384105 0.681803,0.646814 0.626779,1.62745 -0.133664,2.42903 -0.402074,0.423824 -0.80108,0.622983 -1.267419,0.653231 -0.421689,0.02009 -0.82968,-0.121884 -1.124514,-0.401587 -0.28562,-0.270963 -0.44887,-0.670915 -0.451005,-1.093077 -0.0036,-0.476025 0.174801,-0.867007 0.594356,-1.309258 z"
         id="path1398" />
      <path
         style="color:#000000;-inkscape-font-specification:'Nimbus Mono PS Bold';fill:#000000;-inkscape-stroke:none"
         d="m -44.198226,69.14347 -1.838283,1.401173 c -0.262612,0.200167 -0.338119,0.289657 -0.40063,0.417146 -0.08462,0.224185 -0.05474,0.47288 0.08383,0.654689 0.130879,0.171707 0.327164,0.261624 0.555658,0.247148 0.162595,0.0038 0.299198,-0.06837 0.561809,-0.268536 l 0.747434,-0.569707 3.048705,3.999782 -1.191854,0.908452 c -0.262612,0.200167 -0.335717,0.271858 -0.390529,0.409448 -0.08462,0.224185 -0.05475,0.47288 0.07613,0.644588 0.261757,0.343415 0.642746,0.340454 1.107367,-0.01369 l 3.474558,-2.648369 c 0.464621,-0.354143 0.568454,-0.720721 0.306697,-1.064136 -0.12318,-0.161608 -0.319465,-0.251525 -0.537859,-0.244747 -0.172695,0.0039 -0.289097,0.06067 -0.56181,0.268536 l -1.191854,0.908452 z"
         id="path1400" />
      <path
         style="color:#000000;-inkscape-font-specification:'Nimbus Mono PS Bold';fill:#000000;-inkscape-stroke:none"
         d="m -34.426331,71.841232 -0.0025,1.426135 -1.098274,0.585511 c -0.280172,0.149365 -0.369084,0.22555 -0.45128,0.341331 -0.125539,0.196455 -0.130065,0.457925 -0.02252,0.659649 0.09559,0.17931 0.274868,0.299616 0.49151,0.328041 0.159866,0.02991 0.317505,-0.02535 0.597677,-0.174712 l 2.409478,-1.28454 c 0.257758,-0.137416 0.380292,-0.231525 0.451281,-0.341331 0.119564,-0.207662 0.130064,-0.457925 0.02252,-0.659649 -0.09559,-0.17931 -0.280842,-0.310823 -0.49151,-0.328041 -0.171072,-0.02393 -0.283883,0.0074 -0.575262,0.162763 l 0.05329,-6.001115 c 0.357136,-0.247964 0.462524,-0.563205 0.28926,-0.888204 -0.101568,-0.190517 -0.280842,-0.310824 -0.497485,-0.339248 -0.171072,-0.02393 -0.29509,0.0134 -0.597676,0.174712 l -1.031032,0.549664 c -0.235345,0.125467 -0.307818,0.178496 -0.390757,0.265888 -0.177083,0.180758 -0.219719,0.505722 -0.09425,0.741066 0.09559,0.17931 0.280842,0.310824 0.497484,0.339248 0.147917,0.0075 0.238314,-0.01191 0.49084,-0.132148 l -0.0483,2.932945 -2.42842,-1.612557 c 0.402705,-0.243474 0.513325,-0.575897 0.334087,-0.912103 -0.101568,-0.190517 -0.286817,-0.322031 -0.503459,-0.350455 -0.153891,-0.0187 -0.289116,0.0246 -0.591702,0.185919 l -1.008619,0.537715 c -0.224137,0.119492 -0.296611,0.172521 -0.379549,0.259913 -0.18829,0.186733 -0.219719,0.505722 -0.09425,0.741067 0.167289,0.313792 0.476556,0.407973 0.865049,0.27282 z"
         id="path1402" />
      <path
         style="color:#000000;-inkscape-font-specification:'Nimbus Mono PS Bold';fill:#000000;-inkscape-stroke:none"
         d="m -21.648347,62.31367 3.945164,4.06001 1.314839,-0.222311 -0.976051,-5.772767 c 0.486251,-0.0951 0.723631,-0.367075 0.655879,-0.767788 -0.03599,-0.212878 -0.16793,-0.383775 -0.364414,-0.479356 -0.154683,-0.07689 -0.28414,-0.08076 -0.622242,-0.0236 l -1.627895,0.275242 c -0.313057,0.05293 -0.434045,0.09915 -0.536159,0.180815 -0.179184,0.159099 -0.268414,0.39315 -0.230303,0.618551 0.03388,0.200356 0.16793,0.383774 0.364414,0.479356 0.152566,0.06437 0.294545,0.06612 0.620124,0.01107 l 0.388191,-0.06563 0.554718,3.280835 -3.928407,-4.037083 -1.465105,0.247718 c -0.313057,0.05293 -0.434045,0.09915 -0.53616,0.180815 -0.179184,0.159098 -0.268413,0.393149 -0.230303,0.61855 0.03388,0.200356 0.180453,0.381658 0.364415,0.479356 0.152565,0.06437 0.294545,0.06612 0.620124,0.01107 l 0.137745,-0.02329 0.757974,4.482973 c -0.475846,0.08046 -0.723631,0.367075 -0.655879,0.767788 0.07199,0.425757 0.410632,0.600344 0.999178,0.500833 l 1.615373,-0.273125 c 0.576025,-0.09739 0.840566,-0.361085 0.766462,-0.799365 -0.03388,-0.200356 -0.16793,-0.383775 -0.364414,-0.479356 -0.154683,-0.07689 -0.269501,-0.07036 -0.620124,-0.01107 l -0.388191,0.06563 z"
         id="path1404" />
      <path
         style="color:#000000;-inkscape-font-specification:'Nimbus Mono PS Bold';fill:#000000;-inkscape-stroke:none"
         d="m -8.5400525,63.869049 -0.00436,-0.520681 c -0.014251,-1.701741 -1.4343247,-2.934492 -3.3646565,-2.918326 -1.892234,0.01585 -3.316754,1.285121 -3.303035,2.923363 0.01393,1.663642 1.420775,2.833002 3.427304,2.816198 0.914368,-0.0077 2.220614,-0.234505 2.7899668,-0.493282 0.3164254,-0.129654 0.4672247,-0.321424 0.4649913,-0.588114 -0.00308,-0.368288 -0.2849207,-0.658038 -0.6532077,-0.654953 -0.1396951,0.0012 -0.2791775,0.02774 -0.4439527,0.06722 -1.1405137,0.301662 -1.4702767,0.355225 -2.0544557,0.360117 -1.054063,0.0088 -1.691593,-0.290644 -2.014613,-0.948362 z m -5.1404045,-1.125392 c 0.1983,-0.585881 0.931471,-0.998435 1.795041,-1.005667 0.86357,-0.0072 1.590848,0.393091 1.811632,0.975463 z"
         id="path1406" />
      <path
         style="color:#000000;-inkscape-font-specification:'Nimbus Mono PS Bold';fill:#000000;-inkscape-stroke:none"
         d="m -2.6558519,61.297471 -2.284387,-0.352343 c -0.3388926,-0.05227 -0.4412411,-0.05521 -0.5783726,7.43e-4 -0.2201848,0.09454 -0.3766758,0.276006 -0.411523,0.501934 -0.067758,0.439305 0.2005683,0.699145 0.7904924,0.790135 l 0.9288167,0.143261 -0.4239738,2.748795 -1.481086,-0.228443 c -0.326341,-0.05033 -0.4286896,-0.05327 -0.5658211,0.0027 -0.2201848,0.09454 -0.3786117,0.288558 -0.4115229,0.501935 -0.065822,0.426754 0.2005682,0.699145 0.7779408,0.788199 l 4.3177424,0.665968 c 0.5773725,0.08905 0.9134575,-0.09041 0.9792799,-0.517166 0.0309753,-0.200825 -0.040398,-0.404586 -0.1967606,-0.557205 -0.1225797,-0.121708 -0.2442235,-0.166171 -0.5831161,-0.218442 L -3.2792289,65.3391 Z m 0.1669416,-2.248732 -1.5814986,-0.243931 -0.209083,1.355571 1.5814987,0.24393 z"
         id="path1408" />
      <path
         style="color:#000000;-inkscape-font-specification:'Nimbus Mono PS Bold';fill:#000000;-inkscape-stroke:none"
         d="M 6.0815683,63.939664 C 5.7449166,63.456008 5.2122227,63.08213 4.596374,62.881517 2.9420352,62.342615 1.316704,63.108775 0.80927079,64.66651 c -0.50349964,1.545659 0.36685681,3.138148 2.00912011,3.673117 0.6037732,0.196679 1.2022394,0.204634 1.8274167,0.0076 L 4.468796,68.890604 C 4.2839172,69.458151 3.7272592,69.690881 3.075184,69.478467 L 1.7589583,69.049706 c -0.313962,-0.102273 -0.4144994,-0.121667 -0.5588556,-0.08855 -0.22860972,0.04574 -0.420169,0.223764 -0.49097364,0.441123 -0.0629375,0.193207 -0.0253376,0.405808 0.104383,0.581633 0.0892859,0.135939 0.23839984,0.211227 0.54028644,0.309567 l 1.3524521,0.440562 c 1.3524521,0.440562 2.6775448,-0.182978 3.0666956,-1.418609 L 7.0985664,65.246 7.2434719,65.2932 c 0.2898112,0.09441 0.4305085,0.113525 0.5588556,0.08855 0.2325434,-0.05782 0.4201691,-0.223764 0.4909737,-0.441122 0.062938,-0.193208 0.029271,-0.417884 -0.1004494,-0.593709 -0.105295,-0.127798 -0.206107,-0.187351 -0.54422,-0.297491 L 6.199576,63.5774 Z M 4.215365,64.133157 c 0.9056599,0.295019 1.4177739,1.18311 1.1542233,1.992166 C 5.0942369,66.970605 4.1693706,67.390599 3.2516352,67.091646 2.3580508,66.80056 1.8498704,65.900394 2.1173546,65.079262 2.3848388,64.258131 3.3217806,63.842071 4.215365,64.133157 Z"
         id="path1410" />
      <path
         style="color:#000000;-inkscape-font-specification:'Nimbus Mono PS Bold';fill:#000000;-inkscape-stroke:none"
         d="m 12.640265,63.830713 -1.354643,-0.698227 c -0.225773,-0.116371 -0.304794,-0.157101 -0.435137,-0.181421 -0.255215,-0.03153 -0.529627,0.112782 -0.651817,0.349845 -0.09891,0.191907 -0.09588,0.407786 0.004,0.602133 0.06634,0.148495 0.178877,0.235076 0.483671,0.392177 l 0.135464,0.06982 -2.3099667,4.481608 -0.022577,-0.01164 C 8.2070138,68.68955 8.0883084,68.642653 7.951799,68.658018 c -0.2388046,0.01979 -0.4506069,0.153512 -0.5495223,0.34542 -0.098915,0.191907 -0.095884,0.407786 0.00397,0.602133 0.072157,0.137206 0.2127428,0.252532 0.4836712,0.392177 l 1.2643327,0.651678 c 0.248351,0.128009 0.4180297,0.186891 0.5487207,0.182815 0.2388045,-0.01979 0.4506067,-0.153512 0.5553407,-0.356709 0.0931,-0.180619 0.09007,-0.396497 -0.01526,-0.607951 -0.06634,-0.148495 -0.173406,-0.21797 -0.4894891,-0.380889 l -0.022577,-0.01164 0.9833361,-1.907788 c 0.934732,-0.261172 1.218691,-0.257688 1.73797,0.01 0.338661,0.174556 0.524053,0.341552 0.623561,0.564295 0.104977,0.23985 0.09195,0.376011 -0.09425,0.737249 l -0.925151,1.7949 -0.02258,-0.01164 c -0.293506,-0.151282 -0.400923,-0.19236 -0.548721,-0.182814 -0.238804,0.01979 -0.444788,0.142223 -0.549522,0.34542 -0.09892,0.191907 -0.09588,0.407786 0.01526,0.607951 0.07216,0.137207 0.201454,0.246714 0.483672,0.392178 l 1.264332,0.651678 c 0.530568,0.273472 0.889124,0.215391 1.092773,-0.179712 0.0931,-0.180619 0.09588,-0.407787 -0.004,-0.602133 -0.08344,-0.143025 -0.173406,-0.21797 -0.489489,-0.380889 l -0.02258,-0.01164 1.000792,-1.941654 c 0.5644,-1.095003 0.118532,-2.253522 -1.100646,-2.881926 -0.564434,-0.290928 -1.205555,-0.349915 -1.809778,-0.175568 z"
         id="path1412" />
      <path
         style="color:#000000;-inkscape-font-specification:'Nimbus Mono PS Bold';fill:#000000;-inkscape-stroke:none"
         d="m 20.03937,68.162169 -1.226015,-0.905243 c -0.204335,-0.150873 -0.275853,-0.203679 -0.400652,-0.248466 -0.246925,-0.07181 -0.540834,0.02691 -0.699251,0.241465 -0.128243,0.173685 -0.159663,0.387287 -0.09207,0.595066 0.04182,0.157171 0.139116,0.260585 0.414969,0.464265 l 0.122601,0.09052 -2.994842,4.056066 -0.122602,-0.09052 c -0.25542,-0.188592 -0.365131,-0.253812 -0.502344,-0.260405 -0.231362,-0.02875 -0.461773,0.0695 -0.597559,0.253403 -0.128243,0.173686 -0.159664,0.387287 -0.09206,0.595067 0.04936,0.146954 0.159549,0.275672 0.414969,0.464264 l 1.226015,0.905243 0.22631,-0.306504 c 0.266769,0.686361 0.584916,1.11071 1.17749,1.548243 1.501868,1.108922 3.255761,0.93576 4.259071,-0.423073 0.475252,-0.643658 0.652495,-1.396847 0.496684,-2.190722 -0.155811,-0.793875 -0.587294,-1.428201 -1.36377,-2.001521 -0.582357,-0.42999 -1.206352,-0.653922 -1.823574,-0.651839 z m -0.560706,3.816846 c 0.500623,0.369641 0.734363,0.71588 0.824297,1.19274 0.0717,0.416034 -0.01912,0.838366 -0.252975,1.155087 -0.233854,0.31672 -0.618287,0.538046 -1.036995,0.591984 -0.464445,0.05174 -0.892124,-0.0746 -1.362096,-0.421609 -0.480189,-0.354554 -0.726819,-0.726097 -0.81408,-1.185196 -0.0717,-0.416034 0.01912,-0.838367 0.245431,-1.14487 0.550689,-0.745826 1.538208,-0.821805 2.396418,-0.188136 z"
         id="path1414" />
      <path
         style="color:#000000;-inkscape-font-specification:'Nimbus Mono PS Bold';fill:#000000;-inkscape-stroke:none"
         d="m 26.472209,76.383626 c -1.332741,-1.361186 -3.243817,-1.534039 -4.405362,-0.396767 -1.152471,1.128387 -1.029087,3.051572 0.276999,4.385534 1.306085,1.333963 3.226236,1.49793 4.378707,0.369544 1.143396,-1.119502 1.029086,-3.051572 -0.250344,-4.358311 z m -0.979106,0.869776 c 0.790759,0.807637 0.905097,1.886535 0.269877,2.50848 -0.626146,0.613061 -1.711464,0.484851 -2.484453,-0.304637 -0.772989,-0.789488 -0.878253,-1.877271 -0.252107,-2.490332 0.626145,-0.61306 1.711463,-0.48485 2.466683,0.286489 z"
         id="path1416" />
      <path
         style="color:#000000;-inkscape-font-specification:'Nimbus Mono PS Bold';fill:#000000;-inkscape-stroke:none"
         d="m 31.642088,82.782621 -1.017294,-1.442705 c -0.131736,-0.186826 -0.301928,-0.362074 -0.405054,-0.398135 -0.210511,-0.100199 -0.460144,-0.07957 -0.646969,0.05216 -0.352892,0.248834 -0.364069,0.62967 -0.02741,1.107112 l 0.226879,0.321754 -2.273039,1.602786 -0.395208,-0.560475 c -0.190285,-0.269858 -0.259213,-0.345573 -0.394675,-0.405453 -0.210511,-0.100199 -0.470523,-0.07225 -0.646969,0.05216 -0.352892,0.248834 -0.364069,0.62967 -0.02741,1.107112 l 2.173642,3.082614 c 0.343977,0.487822 0.69607,0.612505 1.059341,0.356351 0.166067,-0.117098 0.263205,-0.309911 0.264536,-0.528406 0.0025,-0.17272 -0.0499,-0.29115 -0.254823,-0.581766 l -0.988018,-1.401189 1.401188,-0.988019 c 1.413298,0.417562 1.955145,0.657081 2.174705,0.968456 0.09514,0.134929 0.119493,0.257617 0.09741,0.490749 -0.02821,0.268528 3.99e-4,0.419292 0.110179,0.57498 0.212241,0.300996 0.644308,0.384827 0.945304,0.172586 0.186825,-0.131736 0.263205,-0.309912 0.285959,-0.652291 0.02528,-0.5151 -0.09168,-0.945437 -0.355155,-1.319087 -0.365933,-0.518959 -0.777774,-0.77245 -1.909104,-1.186818 z"
         id="path1418" />
      <path
         style="color:#000000;-inkscape-font-specification:'Nimbus Mono PS Bold';fill:#000000;-inkscape-stroke:none"
         d="m 37.549373,88.139779 -0.666282,-1.370636 c -0.111048,-0.22844 -0.149914,-0.308393 -0.239703,-0.405956 -0.185449,-0.178151 -0.491621,-0.227012 -0.731482,-0.110412 -0.194174,0.09439 -0.321085,0.269051 -0.357572,0.484482 -0.03585,0.158638 0.0024,0.295385 0.152294,0.603778 l 0.06663,0.137063 -4.534522,2.204283 -0.01111,-0.02284 c -0.138809,-0.28555 -0.205754,-0.394217 -0.324257,-0.463701 -0.203058,-0.127228 -0.452755,-0.147057 -0.646928,-0.05267 -0.194174,0.09439 -0.321084,0.269051 -0.357571,0.484483 -0.02443,0.153086 0.01904,0.32965 0.152293,0.603778 l 0.621863,1.27926 c 0.122152,0.251284 0.222729,0.400086 0.32981,0.475122 0.203057,0.127228 0.452754,0.147058 0.65835,0.04712 0.182751,-0.08884 0.309662,-0.263499 0.352018,-0.495904 0.03585,-0.158639 -0.0082,-0.278411 -0.163715,-0.598226 l -0.01111,-0.02284 1.930313,-0.938347 c 0.904874,0.350908 1.130141,0.523824 1.385549,1.049235 0.166571,0.342659 0.214956,0.587438 0.161177,0.825396 -0.05965,0.254932 -0.151658,0.356143 -0.517161,0.533818 l -1.816093,0.882824 -0.01111,-0.02284 c -0.144361,-0.296971 -0.205754,-0.394216 -0.32981,-0.475122 -0.203057,-0.127228 -0.441332,-0.15261 -0.646927,-0.05267 -0.194174,0.09439 -0.321085,0.269051 -0.352019,0.495904 -0.02443,0.153086 0.01348,0.318229 0.152293,0.603778 l 0.621863,1.279261 c 0.260961,0.536832 0.582838,0.705148 0.982607,0.510816 0.182752,-0.08884 0.321084,-0.269051 0.357571,-0.484482 0.01888,-0.164509 -0.0082,-0.278411 -0.163715,-0.598226 l -0.01111,-0.02284 1.964579,-0.955004 c 1.107931,-0.538578 1.445038,-1.733285 0.845384,-2.966858 -0.277617,-0.571098 -0.755595,-1.002436 -1.343827,-1.224847 z"
         id="path1420" />
      <path
         style="color:#000000;-inkscape-font-specification:'Nimbus Mono PS Bold';fill:#000000;-inkscape-stroke:none"
         d="m 39.313708,98.179761 c -0.546005,-1.825076 -2.156992,-2.867578 -3.71439,-2.401654 -1.545231,0.462284 -2.331178,2.221873 -1.796093,4.010447 0.535085,1.788576 2.158239,2.827436 3.70347,2.365156 1.533064,-0.45865 2.331178,-2.221876 1.807013,-3.973949 z m -1.271419,0.314087 c 0.323963,1.082879 -0.07701,2.091002 -0.928717,2.345802 -0.839536,0.25116 -1.740445,-0.36747 -2.057128,-1.426019 -0.316683,-1.058544 0.09646,-2.070307 0.935997,-2.321469 0.839535,-0.251162 1.740445,0.367477 2.049848,1.401686 z"
         id="path1422" />
      <path
         style="color:#000000;-inkscape-font-specification:'Nimbus Mono PS Bold';fill:#000000;-inkscape-stroke:none"
         d="m 41.083098,106.49104 c -0.248699,-1.88869 -1.673317,-3.17421 -3.285005,-2.96199 -1.599096,0.21057 -2.654965,1.82271 -2.41124,3.67363 0.243726,1.85093 1.680935,3.13478 3.280031,2.92422 1.586505,-0.20891 2.654966,-1.82271 2.416214,-3.63586 z m -1.305194,0.10782 c 0.147562,1.12063 -0.408692,2.05212 -1.290083,2.16818 -0.868801,0.1144 -1.659817,-0.63969 -1.804063,-1.73513 -0.144246,-1.09544 0.424599,-2.02859 1.293399,-2.143 0.8688,-0.1144 1.659817,0.63969 1.800747,1.70995 z"
         id="path1424" />
      <path
         style="color:#000000;-inkscape-font-specification:'Nimbus Mono PS Bold';fill:#000000;-inkscape-stroke:none"
         d="m 43.536994,117.98262 0.04366,-1.52337 c 0.0095,-0.33007 -3.26e-4,-0.43199 -0.07286,-0.56112 -0.121127,-0.20675 -0.320606,-0.33952 -0.549112,-0.34607 -0.215811,-0.006 -0.409144,0.0899 -0.541185,0.264 -0.09286,0.1371 -0.134588,0.26296 -0.144411,0.60572 l -0.0044,0.15233 -1.345648,-0.0386 c 0.382338,-0.48455 0.59095,-1.11383 0.611687,-1.83743 0.02801,-0.9775 -0.205145,-1.70838 -0.733922,-2.32068 -0.528777,-0.6123 -1.230954,-0.93735 -2.030725,-0.96027 -0.812467,-0.0233 -1.532106,0.26102 -2.095081,0.84203 -0.562975,0.58102 -0.837608,1.29734 -0.865257,2.26215 -0.0211,0.73629 0.116684,1.24845 0.492395,1.88177 l -0.380843,-0.0109 -0.04366,1.52337 c -0.0087,0.30468 0.01266,0.44505 0.07286,0.56112 0.121127,0.20676 0.3333,0.33989 0.561806,0.34644 0.203117,0.006 0.409144,-0.0899 0.541185,-0.26401 0.09286,-0.13709 0.121529,-0.25062 0.131716,-0.60607 l 0.0044,-0.15234 z m -3.310159,-3.30928 c -0.01746,0.60935 -0.168384,0.99889 -0.508635,1.34488 -0.288016,0.29667 -0.699343,0.46276 -1.080187,0.45184 -0.939414,-0.0269 -1.552689,-0.7941 -1.521037,-1.89855 0.01673,-0.58396 0.181078,-0.99852 0.508271,-1.33218 0.300711,-0.29631 0.699343,-0.46276 1.105576,-0.45112 0.393539,0.0113 0.781984,0.20029 1.065233,0.51333 0.320241,0.35222 0.448242,0.76245 0.430779,1.3718 z"
         id="path1426" />
    </g>
    <g
       aria-label="NP"
       transform="matrix(0.26458333,0,0,0.26458333,27.497925,189.20155)"
       id="text132132"
       style="font-size:85.3333px;line-height:1.25;white-space:pre;shape-inside:url(#rect132134)">
      <path
         d="m -178.01089,-289.67282 21.58932,31.31732 h 8.96 v -39.33865 c 3.328,-0.0853 5.20533,-1.62133 5.20533,-4.352 0,-1.45066 -0.68267,-2.73066 -1.87733,-3.584 -0.93867,-0.68266 -1.792,-0.85333 -4.096,-0.85333 h -11.09333 c -2.13333,0 -2.98667,0.17067 -3.75467,0.59733 -1.36533,0.85334 -2.21866,2.304 -2.21866,3.84 0,1.36533 0.68266,2.73067 1.87733,3.584 0.93867,0.59733 1.87733,0.768 4.096,0.768 h 2.64533 v 22.35732 l -21.50399,-31.14665 h -9.984 c -2.13333,0 -2.98666,0.17067 -3.75466,0.59733 -1.36533,0.85334 -2.21867,2.304 -2.21867,3.84 0,1.36533 0.768,2.73067 1.87734,3.584 0.93866,0.59733 1.87733,0.768 4.09599,0.768 h 0.93867 v 30.54932 c -3.24267,0 -5.20533,1.62133 -5.20533,4.352 0,2.90133 2.048,4.43733 6.05866,4.43733 h 11.008 c 3.92533,0 5.97333,-1.45067 5.97333,-4.43733 0,-1.36533 -0.68267,-2.73067 -1.87733,-3.584 -0.93867,-0.68267 -1.70667,-0.768 -4.096,-0.768 h -2.64533 z"
         style="font-weight:bold;font-family:'Nimbus Mono PS';-inkscape-font-specification:'Nimbus Mono PS Bold';text-align:center;text-anchor:middle"
         id="path1586" />
      <path
         d="m -125.01905,-274.65416 h 8.02133 c 8.02133,0 12.37333,-1.45067 16.21333,-5.46133 2.730666,-2.90133 4.351998,-6.82666 4.351998,-10.66666 0,-9.216 -7.850668,-15.70133 -18.858658,-15.70133 h -19.88266 c -2.21866,0 -2.90133,0.0853 -3.75466,0.59733 -1.36534,0.85334 -2.21867,2.304 -2.21867,3.75467 0,1.45066 0.768,2.816 1.87733,3.584 0.93867,0.68266 1.87734,0.85333 4.096,0.85333 h 0.93867 v 30.54932 h -0.93867 c -2.13333,0 -2.90133,0.17067 -3.75466,0.59733 -1.36534,0.85334 -2.21867,2.304 -2.21867,3.75467 0,1.36533 0.768,2.816 1.87733,3.584 0.85334,0.59733 2.13334,0.85333 4.096,0.85333 h 18.26133 c 3.92533,0 5.97333,-1.45067 5.97333,-4.43733 0,-1.36533 -0.68267,-2.64533 -1.87733,-3.49867 -0.93867,-0.68266 -1.792,-0.85333 -4.096,-0.85333 h -8.10667 z m 0,-23.03999 h 9.728 c 5.71733,0 9.13066,2.64533 9.13066,7.08266 0,4.52267 -3.41333,7.168 -9.13066,7.168 h -9.728 z"
         style="font-weight:bold;font-family:'Nimbus Mono PS';-inkscape-font-specification:'Nimbus Mono PS Bold';text-align:center;text-anchor:middle"
         id="path1588" />
    </g>
  </g>
</svg>
